<?xml version="1.0" encoding="utf-8"?>
<!-- Generator: Adobe Illustrator 19.0.0, SVG Export Plug-In . SVG Version: 6.00 Build 0)  -->
<svg version="1.1" id="Layer_1" xmlns="http://www.w3.org/2000/svg" xmlns:xlink="http://www.w3.org/1999/xlink" x="0px" y="0px"
	 viewBox="0 0 169 31.3" style="enable-background:new 0 0 169 31.3;" xml:space="preserve">
<style type="text/css">
	.st0{fill:#0E4451;}
	.st1{fill:#2FB46C;}
</style>
<g id="XMLID_5562_">
	<g id="XMLID_5500_">
		<path id="XMLID_5815_" class="st0" d="M41.9,18.2l-1.4,1.3L40,22.2h-3.1l2-11.2H42l-0.8,4.7l5.2-4.7h3.5l-5.5,5l3.7,6.3h-3.7
			L41.9,18.2z"/>
		<path id="XMLID_5812_" class="st0" d="M54.4,19.3h-1.7l-0.5,3h-3.2l2-11.2h5.1c1,0,1.9,0.2,2.6,0.5c0.7,0.3,1.2,0.8,1.5,1.4
			c0.3,0.6,0.4,1.4,0.2,2.2c-0.1,0.8-0.5,1.5-0.9,2.1c-0.5,0.6-1.1,1.1-1.9,1.4l1.8,3.5h-3.4L54.4,19.3z M56.8,14
			c-0.3-0.3-0.7-0.4-1.4-0.4h-1.8l-0.6,3.3h1.8c0.7,0,1.2-0.1,1.5-0.4c0.4-0.3,0.6-0.7,0.7-1.2C57.2,14.6,57.1,14.2,56.8,14z"/>
		<path id="XMLID_5810_" class="st0" d="M62.8,11H66l-2,11.2h-3.2L62.8,11z"/>
		<path id="XMLID_5808_" class="st0" d="M67.6,22.1c-0.8-0.2-1.5-0.5-1.9-0.9l1.5-2.3c0.4,0.3,1,0.6,1.6,0.8
			c0.6,0.2,1.3,0.3,1.9,0.3c1.2,0,1.9-0.3,2-0.9c0.1-0.3-0.1-0.6-0.4-0.7c-0.3-0.2-0.9-0.3-1.6-0.5c-0.8-0.2-1.5-0.4-2-0.6
			c-0.5-0.2-1-0.5-1.3-1c-0.3-0.5-0.4-1.1-0.3-1.9c0.1-0.7,0.4-1.3,0.9-1.9c0.5-0.6,1.1-1,1.9-1.3c0.8-0.3,1.7-0.5,2.8-0.5
			c0.7,0,1.4,0.1,2.1,0.2c0.7,0.2,1.3,0.4,1.8,0.7l-1.4,2.4c-1-0.6-2-0.9-3-0.9c-0.6,0-1.1,0.1-1.4,0.3c-0.3,0.2-0.5,0.4-0.6,0.7
			s0.1,0.5,0.4,0.7c0.3,0.1,0.8,0.3,1.6,0.5c0.8,0.2,1.5,0.4,2,0.6c0.5,0.2,1,0.5,1.3,1c0.3,0.5,0.4,1.1,0.3,1.9
			c-0.1,0.7-0.4,1.3-0.9,1.8c-0.5,0.5-1.1,1-1.9,1.3c-0.8,0.3-1.7,0.5-2.8,0.5C69.2,22.5,68.4,22.4,67.6,22.1z"/>
		<path id="XMLID_5806_" class="st0" d="M89.3,11l-2,11.2h-3.2l0.8-4.4h-4.3l-0.8,4.4h-3.2l2-11.2h3.2L81,15.2h4.3l0.7-4.2H89.3z"/>
		<path id="XMLID_5804_" class="st0" d="M91.5,11h3.2l-2,11.2h-3.2L91.5,11z"/>
	</g>
	<g id="XMLID_3534_">
		<path id="XMLID_5802_" class="st0" d="M98.7,22c-0.6-0.3-1.1-0.7-1.4-1.2l2.1-2.1c0.5,0.8,1,1.2,1.7,1.2c0.5,0,0.8-0.1,1.1-0.4
			c0.3-0.3,0.5-0.7,0.6-1.2l0.9-4.8h-3.9l0.4-2.5h7l-1.2,7.1c-0.3,1.5-0.8,2.5-1.7,3.3c-0.9,0.7-2,1.1-3.4,1.1
			C100,22.5,99.3,22.3,98.7,22z"/>
		<path id="XMLID_5799_" class="st0" d="M115,20.1h-4.7l-1.3,2.2h-3.2l6.9-11.2h3.1l3,11.2h-3.3L115,20.1z M114.5,17.7l-0.8-3.6
			l-2.1,3.6H114.5z"/>
		<path id="XMLID_5797_" class="st0" d="M128.1,16.4h2.8l-0.8,4.6c-0.7,0.5-1.5,0.8-2.4,1.1c-0.9,0.2-1.7,0.4-2.6,0.4
			c-1.2,0-2.2-0.2-3-0.7c-0.9-0.5-1.5-1.2-1.8-2.1c-0.4-0.9-0.5-1.9-0.3-3s0.6-2.1,1.3-3c0.7-0.9,1.6-1.6,2.6-2.1
			c1-0.5,2.2-0.7,3.4-0.7c1,0,2,0.2,2.7,0.5c0.8,0.4,1.4,0.9,1.8,1.5l-2.3,1.8c-0.6-0.8-1.4-1.3-2.5-1.3c-1,0-1.8,0.3-2.5,0.9
			c-0.7,0.6-1.1,1.4-1.3,2.3c-0.1,0.6-0.1,1.2,0.1,1.7c0.2,0.5,0.5,0.9,0.9,1.1c0.4,0.3,1,0.4,1.6,0.4c0.6,0,1.2-0.1,1.8-0.4
			L128.1,16.4z"/>
		<path id="XMLID_5794_" class="st0" d="M137.3,19.3h-1.7l-0.5,3h-3.2l2-11.2h5.1c1,0,1.9,0.2,2.6,0.5c0.7,0.3,1.2,0.8,1.5,1.4
			c0.3,0.6,0.4,1.4,0.2,2.2c-0.1,0.8-0.5,1.5-0.9,2.1c-0.5,0.6-1.1,1.1-1.9,1.4l1.8,3.5h-3.4L137.3,19.3z M139.8,14
			c-0.3-0.3-0.7-0.4-1.4-0.4h-1.8l-0.6,3.3h1.8c0.7,0,1.2-0.1,1.5-0.4c0.4-0.3,0.6-0.7,0.7-1.2C140.1,14.6,140,14.2,139.8,14z"/>
		<path id="XMLID_5791_" class="st0" d="M151.6,20.1h-4.7l-1.3,2.2h-3.2l6.9-11.2h3.1l3,11.2h-3.3L151.6,20.1z M151.1,17.7l-0.8-3.6
			l-2.1,3.6H151.1z"/>
		<path id="XMLID_5789_" class="st0" d="M169,11l-2,11.2h-2.6l-3.9-6l-1.1,6h-3.1l2-11.2h2.6l3.9,6l1.1-6H169z"/>
	</g>
	<g id="XMLID_5501_">
		<polygon id="XMLID_5655_" class="st0" points="16.6,17.4 11.4,21.1 13.9,24.3 21.9,24.3 		"/>
		<polygon id="XMLID_5652_" class="st0" points="24.4,9 16.5,9 8.6,14.3 9.7,9 3.1,9 0,24.3 6.6,24.3 7.4,20.6 		"/>
		<path id="XMLID_5567_" class="st0" d="M30.5,9h-1.7l-6.9,4.8h4L24.1,23c-0.3,1.7-2.3,3-4.3,3h-0.1l-1.1,5.4l0.9,0
			c5.3,0,10.2-3.5,11.1-7.8L33.5,9H30.5z"/>
		<path id="XMLID_5505_" class="st1" d="M32.9,0c-2.2,0-4.2,1.8-4.6,3.9l-0.5,2.9L32.2,4l-3.7,4h3c2.2,0,4.2-1.8,4.6-3.9l0.7-4H32.9
			z"/>
	</g>
</g>
</svg>
